<svg xmlns="http://www.w3.org/2000/svg" xmlns:xlink="http://www.w3.org/1999/xlink" width="40" zoomAndPan="magnify" viewBox="0 0 30 30.000001" height="40" preserveAspectRatio="xMidYMid meet" version="1.0"><defs><clipPath id="6dfd7c7602"><path d="M 0.484375 7.390625 L 29.515625 7.390625 L 29.515625 21.90625 L 0.484375 21.90625 Z M 0.484375 7.390625 " clip-rule="nonzero"/></clipPath></defs><g clip-path="url(#6dfd7c7602)"><path fill="#332b2d" d="M 29.5 13.246094 C 29.542969 13.714844 29.492188 14.1875 29.351562 14.660156 C 29.207031 15.136719 28.976562 15.609375 28.652344 16.078125 C 28.328125 16.542969 27.921875 16.996094 27.429688 17.4375 C 26.9375 17.875 26.371094 18.292969 25.726562 18.6875 C 25.085938 19.085938 24.382812 19.449219 23.613281 19.785156 C 22.847656 20.121094 22.035156 20.421875 21.171875 20.6875 C 20.308594 20.949219 19.414062 21.171875 18.488281 21.355469 C 17.5625 21.535156 16.625 21.671875 15.675781 21.765625 C 14.722656 21.855469 13.773438 21.902344 12.832031 21.902344 C 11.890625 21.902344 10.96875 21.851562 10.074219 21.761719 C 9.175781 21.667969 8.320312 21.527344 7.503906 21.34375 C 6.6875 21.160156 5.929688 20.9375 5.222656 20.671875 C 4.519531 20.40625 3.882812 20.105469 3.320312 19.769531 C 2.753906 19.429688 2.269531 19.066406 1.863281 18.667969 C 1.457031 18.273438 1.140625 17.855469 0.910156 17.414062 C 0.683594 16.972656 0.546875 16.519531 0.5 16.050781 C 0.457031 15.585938 0.503906 15.113281 0.648438 14.636719 C 0.789062 14.160156 1.023438 13.691406 1.347656 13.222656 C 1.671875 12.757812 2.078125 12.304688 2.570312 11.863281 C 3.0625 11.421875 3.628906 11.007812 4.269531 10.609375 C 4.914062 10.214844 5.617188 9.847656 6.382812 9.511719 C 7.152344 9.175781 7.964844 8.878906 8.828125 8.613281 C 9.691406 8.347656 10.585938 8.125 11.507812 7.945312 C 12.433594 7.765625 13.375 7.628906 14.324219 7.535156 C 15.277344 7.441406 16.222656 7.398438 17.167969 7.398438 C 18.109375 7.398438 19.027344 7.445312 19.925781 7.539062 C 20.820312 7.632812 21.675781 7.773438 22.492188 7.953125 C 23.308594 8.136719 24.070312 8.363281 24.773438 8.628906 C 25.480469 8.890625 26.113281 9.195312 26.679688 9.53125 C 27.246094 9.867188 27.730469 10.234375 28.136719 10.632812 C 28.542969 11.027344 28.859375 11.445312 29.089844 11.886719 C 29.316406 12.328125 29.453125 12.78125 29.5 13.246094 Z M 29.5 13.246094 " fill-opacity="1" fill-rule="nonzero"/></g><path fill="#808285" d="M 26.324219 12.417969 C 26.304688 12.371094 26.28125 12.328125 26.253906 12.285156 L 26.183594 12.152344 L 26.164062 12.121094 L 26.140625 12.089844 L 26.097656 12.023438 L 26.007812 11.894531 L 25.960938 11.832031 L 25.910156 11.769531 L 25.808594 11.648438 C 25.789062 11.625 25.773438 11.605469 25.753906 11.585938 L 25.695312 11.523438 L 25.582031 11.402344 C 25.226562 11.058594 24.835938 10.761719 24.410156 10.511719 C 23.917969 10.226562 23.402344 9.984375 22.863281 9.789062 C 22.257812 9.570312 21.640625 9.394531 21.011719 9.261719 C 19.691406 8.980469 18.210938 8.847656 16.703125 8.882812 C 18.1875 8.917969 19.609375 9.082031 20.878906 9.378906 C 21.480469 9.519531 22.074219 9.699219 22.65625 9.917969 C 23.171875 10.113281 23.667969 10.347656 24.144531 10.628906 C 24.5625 10.871094 24.949219 11.15625 25.300781 11.488281 L 25.476562 11.664062 C 25.496094 11.683594 25.515625 11.707031 25.53125 11.722656 L 25.636719 11.84375 L 25.6875 11.902344 L 25.714844 11.933594 L 25.738281 11.964844 L 25.828125 12.089844 C 25.863281 12.128906 25.890625 12.167969 25.917969 12.210938 L 26 12.339844 C 26.027344 12.378906 26.054688 12.421875 26.078125 12.464844 C 26.46875 13.148438 26.582031 13.875 26.417969 14.648438 C 26.707031 13.894531 26.671875 13.128906 26.324219 12.417969 Z M 26.324219 12.417969 " fill-opacity="1" fill-rule="nonzero"/><path fill="#808285" d="M 7.34375 19.378906 C 6.828125 19.1875 6.332031 18.949219 5.855469 18.667969 C 5.4375 18.425781 5.054688 18.140625 4.703125 17.808594 L 4.527344 17.632812 C 4.507812 17.613281 4.484375 17.59375 4.46875 17.574219 L 4.367188 17.453125 L 4.3125 17.394531 L 4.265625 17.332031 L 4.171875 17.210938 C 4.140625 17.167969 4.109375 17.128906 4.082031 17.085938 L 4 16.960938 C 3.972656 16.917969 3.949219 16.875 3.921875 16.832031 C 3.53125 16.148438 3.417969 15.421875 3.585938 14.648438 C 3.292969 15.402344 3.328125 16.171875 3.675781 16.882812 C 3.695312 16.925781 3.71875 16.96875 3.746094 17.011719 L 3.820312 17.144531 L 3.835938 17.175781 L 3.859375 17.210938 L 3.902344 17.273438 L 3.992188 17.402344 L 4.015625 17.433594 L 4.042969 17.464844 L 4.195312 17.652344 C 4.210938 17.671875 4.230469 17.691406 4.25 17.710938 L 4.304688 17.773438 L 4.421875 17.894531 C 4.777344 18.238281 5.167969 18.535156 5.59375 18.785156 C 6.085938 19.070312 6.601562 19.3125 7.136719 19.507812 C 7.742188 19.730469 8.359375 19.90625 8.992188 20.035156 C 10.3125 20.320312 11.792969 20.449219 13.296875 20.414062 C 11.8125 20.382812 10.390625 20.214844 9.121094 19.917969 C 8.519531 19.777344 7.925781 19.597656 7.34375 19.378906 Z M 7.34375 19.378906 " fill-opacity="1" fill-rule="nonzero"/><path fill="#808285" d="M 24.996094 12.550781 L 24.933594 12.433594 C 24.921875 12.414062 24.910156 12.394531 24.894531 12.375 L 24.855469 12.316406 L 24.777344 12.203125 L 24.757812 12.175781 L 24.6875 12.09375 L 24.597656 11.980469 C 24.582031 11.960938 24.566406 11.945312 24.550781 11.925781 L 24.5 11.871094 L 24.402344 11.765625 C 24.085938 11.457031 23.738281 11.195312 23.359375 10.972656 C 22.921875 10.71875 22.464844 10.503906 21.988281 10.332031 C 21.449219 10.136719 20.898438 9.980469 20.339844 9.863281 C 19.164062 9.617188 17.847656 9.5 16.511719 9.535156 C 17.828125 9.570312 19.082031 9.71875 20.207031 9.980469 C 20.738281 10.105469 21.265625 10.265625 21.777344 10.460938 C 22.234375 10.632812 22.675781 10.84375 23.09375 11.089844 C 23.464844 11.304688 23.804688 11.558594 24.117188 11.851562 L 24.273438 12.007812 C 24.289062 12.023438 24.304688 12.039062 24.320312 12.058594 L 24.414062 12.164062 L 24.484375 12.246094 L 24.503906 12.273438 L 24.585938 12.382812 C 24.613281 12.417969 24.644531 12.453125 24.667969 12.492188 L 24.738281 12.605469 C 24.765625 12.640625 24.789062 12.679688 24.808594 12.71875 C 25.160156 13.320312 25.265625 13.964844 25.125 14.648438 C 25.390625 13.980469 25.367188 13.296875 25.058594 12.667969 C 25.042969 12.628906 25.019531 12.589844 24.996094 12.550781 Z M 24.996094 12.550781 " fill-opacity="1" fill-rule="nonzero"/><path fill="#808285" d="M 8.222656 18.835938 C 7.765625 18.664062 7.324219 18.457031 6.902344 18.207031 C 6.535156 17.992188 6.195312 17.738281 5.882812 17.445312 L 5.78125 17.34375 L 5.726562 17.292969 C 5.710938 17.277344 5.691406 17.261719 5.675781 17.242188 L 5.585938 17.132812 L 5.539062 17.078125 L 5.515625 17.054688 L 5.496094 17.027344 L 5.414062 16.917969 C 5.386719 16.878906 5.355469 16.84375 5.335938 16.804688 L 5.257812 16.695312 C 5.234375 16.65625 5.210938 16.621094 5.191406 16.582031 C 4.839844 15.976562 4.734375 15.335938 4.875 14.648438 C 4.609375 15.320312 4.632812 16 4.941406 16.632812 C 4.957031 16.671875 4.980469 16.710938 5 16.75 L 5.066406 16.867188 C 5.078125 16.886719 5.089844 16.90625 5.101562 16.921875 L 5.144531 16.980469 L 5.222656 17.09375 L 5.242188 17.121094 L 5.265625 17.152344 L 5.308594 17.207031 L 5.398438 17.316406 C 5.414062 17.335938 5.429688 17.355469 5.449219 17.371094 L 5.601562 17.535156 C 5.914062 17.839844 6.261719 18.101562 6.640625 18.324219 C 7.078125 18.582031 7.535156 18.792969 8.011719 18.96875 C 8.550781 19.164062 9.101562 19.320312 9.660156 19.433594 C 10.835938 19.683594 12.152344 19.800781 13.488281 19.765625 C 12.171875 19.730469 10.917969 19.582031 9.792969 19.316406 C 9.257812 19.191406 8.734375 19.03125 8.222656 18.835938 Z M 8.222656 18.835938 " fill-opacity="1" fill-rule="nonzero"/><path fill="#808285" d="M 22.3125 11.433594 C 21.605469 11.015625 20.695312 10.683594 19.667969 10.464844 C 18.5625 10.242188 17.445312 10.148438 16.320312 10.1875 C 17.464844 10.222656 18.558594 10.351562 19.535156 10.585938 C 20.511719 10.820312 21.363281 11.148438 22.046875 11.550781 C 22.730469 11.957031 23.238281 12.4375 23.542969 12.964844 C 23.847656 13.488281 23.945312 14.050781 23.835938 14.648438 C 24.074219 14.066406 24.058594 13.46875 23.792969 12.917969 C 23.527344 12.367188 23.019531 11.855469 22.3125 11.433594 Z M 22.3125 11.433594 " fill-opacity="1" fill-rule="nonzero"/><path fill="#808285" d="M 7.953125 17.75 C 7.269531 17.34375 6.761719 16.859375 6.457031 16.335938 C 6.152344 15.808594 6.054688 15.25 6.167969 14.652344 C 5.925781 15.234375 5.941406 15.832031 6.207031 16.382812 C 6.472656 16.933594 6.980469 17.441406 7.6875 17.863281 C 8.394531 18.285156 9.304688 18.617188 10.332031 18.832031 C 11.4375 19.054688 12.554688 19.148438 13.679688 19.113281 C 12.535156 19.078125 11.441406 18.949219 10.464844 18.714844 C 9.488281 18.480469 8.636719 18.152344 7.953125 17.75 Z M 7.953125 17.75 " fill-opacity="1" fill-rule="nonzero"/><path fill="#808285" d="M 21.261719 11.894531 C 20.65625 11.535156 19.875 11.25 18.992188 11.070312 C 18.046875 10.878906 17.089844 10.800781 16.125 10.839844 C 17.101562 10.871094 18.03125 10.988281 18.859375 11.1875 C 19.691406 11.386719 20.414062 11.667969 20.996094 12.011719 C 21.578125 12.355469 22.011719 12.765625 22.277344 13.214844 C 22.539062 13.660156 22.628906 14.136719 22.542969 14.648438 C 22.757812 14.148438 22.75 13.636719 22.523438 13.164062 C 22.300781 12.6875 21.871094 12.257812 21.261719 11.894531 Z M 21.261719 11.894531 " fill-opacity="1" fill-rule="nonzero"/><path fill="#808285" d="M 9.003906 17.285156 C 8.421875 16.941406 7.988281 16.53125 7.722656 16.082031 C 7.460938 15.636719 7.371094 15.160156 7.457031 14.648438 C 7.242188 15.148438 7.25 15.660156 7.472656 16.132812 C 7.699219 16.609375 8.128906 17.042969 8.738281 17.402344 C 9.34375 17.761719 10.121094 18.046875 11.007812 18.230469 C 11.953125 18.421875 12.910156 18.496094 13.875 18.460938 C 12.894531 18.425781 11.96875 18.3125 11.140625 18.113281 C 10.308594 17.914062 9.585938 17.628906 9.003906 17.285156 Z M 9.003906 17.285156 " fill-opacity="1" fill-rule="nonzero"/><path fill="#d3c72f" d="M 20.675781 14.101562 C 20.691406 14.285156 20.671875 14.46875 20.617188 14.65625 C 20.5625 14.839844 20.46875 15.027344 20.34375 15.207031 C 20.21875 15.390625 20.058594 15.566406 19.863281 15.742188 C 19.671875 15.914062 19.449219 16.074219 19.199219 16.230469 C 18.949219 16.386719 18.671875 16.527344 18.371094 16.660156 C 18.070312 16.792969 17.753906 16.910156 17.414062 17.011719 C 17.078125 17.117188 16.726562 17.203125 16.367188 17.273438 C 16.003906 17.34375 15.636719 17.398438 15.261719 17.433594 C 14.890625 17.46875 14.519531 17.488281 14.152344 17.488281 C 13.78125 17.488281 13.421875 17.46875 13.070312 17.433594 C 12.722656 17.394531 12.386719 17.34375 12.066406 17.269531 C 11.746094 17.199219 11.449219 17.109375 11.171875 17.007812 C 10.898438 16.902344 10.648438 16.785156 10.425781 16.652344 C 10.207031 16.519531 10.015625 16.378906 9.855469 16.222656 C 9.699219 16.066406 9.574219 15.902344 9.484375 15.730469 C 9.394531 15.558594 9.339844 15.382812 9.324219 15.199219 C 9.308594 15.015625 9.328125 14.832031 9.382812 14.644531 C 9.4375 14.457031 9.527344 14.273438 9.65625 14.089844 C 9.78125 13.910156 9.941406 13.730469 10.132812 13.558594 C 10.328125 13.386719 10.546875 13.222656 10.800781 13.070312 C 11.050781 12.914062 11.328125 12.769531 11.628906 12.640625 C 11.925781 12.507812 12.246094 12.390625 12.582031 12.285156 C 12.921875 12.183594 13.269531 12.097656 13.632812 12.027344 C 13.996094 11.953125 14.363281 11.902344 14.734375 11.863281 C 15.109375 11.828125 15.480469 11.8125 15.847656 11.8125 C 16.214844 11.8125 16.578125 11.832031 16.925781 11.867188 C 17.277344 11.902344 17.613281 11.957031 17.933594 12.027344 C 18.253906 12.101562 18.550781 12.1875 18.824219 12.292969 C 19.101562 12.394531 19.351562 12.515625 19.570312 12.644531 C 19.792969 12.777344 19.984375 12.921875 20.140625 13.078125 C 20.300781 13.230469 20.425781 13.394531 20.515625 13.566406 C 20.605469 13.742188 20.65625 13.917969 20.675781 14.101562 Z M 20.675781 14.101562 " fill-opacity="1" fill-rule="nonzero"/><path fill="#332b2d" d="M 19.183594 14.585938 C 19.117188 14.585938 19.054688 14.613281 19.042969 14.648438 C 18.710938 15.773438 16.625 16.691406 14.394531 16.691406 C 12.167969 16.691406 10.625 15.773438 10.957031 14.648438 C 10.964844 14.613281 10.917969 14.585938 10.851562 14.585938 C 10.785156 14.585938 10.722656 14.613281 10.710938 14.648438 C 10.359375 15.84375 11.996094 16.816406 14.359375 16.816406 C 16.722656 16.816406 18.933594 15.84375 19.289062 14.648438 C 19.300781 14.613281 19.25 14.585938 19.183594 14.585938 Z M 19.183594 14.585938 " fill-opacity="1" fill-rule="nonzero"/><path fill="#332b2d" d="M 14.308594 13.535156 C 14.40625 13.6875 14.417969 13.863281 14.347656 14.0625 C 14.277344 14.261719 14.140625 14.429688 13.941406 14.5625 C 13.742188 14.695312 13.539062 14.757812 13.328125 14.746094 C 13.117188 14.734375 12.964844 14.652344 12.867188 14.503906 C 12.765625 14.351562 12.753906 14.179688 12.824219 13.976562 C 12.898438 13.777344 13.03125 13.613281 13.230469 13.476562 C 13.429688 13.34375 13.636719 13.285156 13.84375 13.296875 C 14.054688 13.308594 14.210938 13.386719 14.308594 13.535156 Z M 14.308594 13.535156 " fill-opacity="1" fill-rule="nonzero"/><path fill="#332b2d" d="M 17.503906 13.535156 C 17.601562 13.6875 17.617188 13.859375 17.546875 14.0625 C 17.472656 14.261719 17.339844 14.429688 17.140625 14.5625 C 16.941406 14.695312 16.734375 14.757812 16.523438 14.746094 C 16.316406 14.734375 16.160156 14.652344 16.0625 14.503906 C 15.964844 14.351562 15.949219 14.179688 16.023438 13.976562 C 16.09375 13.777344 16.230469 13.609375 16.429688 13.476562 C 16.628906 13.34375 16.832031 13.285156 17.042969 13.292969 C 17.253906 13.304688 17.40625 13.386719 17.503906 13.535156 Z M 17.503906 13.535156 " fill-opacity="1" fill-rule="nonzero"/></svg>